<svg xmlns="http://www.w3.org/2000/svg" viewBox="0 0 21.32 53.72"><defs><style>.cls-1{fill:#c9388d;}</style></defs><title>Asset 2</title><g id="Layer_2" data-name="Layer 2"><g id="Layer_1-2" data-name="Layer 1"><path class="cls-1" d="M.33,0a25.92,25.92,0,0,1,3.8,2.3C5.28,3.16,6.42,4,7.46,5s2,1.92,3,2.93S12.32,10,13.2,11.06H8.07C9,10,9.87,8.92,10.83,7.9s2-2,3-2.92,2.2-1.81,3.36-2.67A27,27,0,0,1,21,0l.28.23q-2.55,3.32-5.18,6.57l-5.23,6.54-.29.36-.28-.36L5.17,6.81C3.43,4.64,1.73,2.44,0,.23Z"/><path class="cls-1" d="M.31,20a25.92,25.92,0,0,1,3.8,2.3C5.25,23.16,6.39,24,7.44,25s2,1.92,3,2.93S12.3,30,13.18,31.06H8c.89-1.08,1.8-2.13,2.77-3.15s2-2,3-2.92,2.2-1.81,3.35-2.67A27.58,27.58,0,0,1,21,20l.29.23c-1.71,2.21-3.43,4.4-5.18,6.57l-5.23,6.54-.29.36-.28-.36L5.15,26.81C3.41,24.64,1.71,22.44,0,20.23Z"/><path class="cls-1" d="M.29,40a27,27,0,0,1,3.8,2.3C5.23,43.16,6.37,44,7.41,45s2.05,1.92,3,2.93,1.86,2.07,2.73,3.15H8c.89-1.08,1.8-2.13,2.77-3.15s2-2,3-2.92,2.2-1.81,3.35-2.67A27.58,27.58,0,0,1,21,40l.28.23c-1.7,2.21-3.42,4.4-5.18,6.57l-5.22,6.54-.29.36-.28-.36L5.12,46.81C3.39,44.64,1.68,42.44,0,40.23Z"/></g></g></svg>