<svg xmlns="http://www.w3.org/2000/svg" viewBox="0 0 77 64.81"><defs><style>.cls-1{fill:#ffcb61;}.cls-2{fill:#fff;}</style></defs><title>Asset 24</title><g id="Layer_2" data-name="Layer 2"><g id="Layer_1-2" data-name="Layer 1"><path class="cls-1" d="M72.33,12.25a4.66,4.66,0,0,0-3.43,7.82L51.33,29.75,39.72,9.17a4.67,4.67,0,1,0-2.44,0L25.67,29.75,8.1,20.07a4.66,4.66,0,1,0-3.43,1.51,4.5,4.5,0,0,0,1.6-.29l10.65,38.5H60.08l10.65-38.5a4.5,4.5,0,0,0,1.6.29,4.67,4.67,0,1,0,0-9.33"/><path class="cls-1" d="M59.41,60.56H18.13a2.15,2.15,0,0,0,0,4.25H59.41a2.15,2.15,0,0,0,0-4.25"/><path class="cls-2" d="M34.4,56.15v-.84c2,0,3.19-.29,3.19-2.54V36.34c0-2.08-.65-2.37-2.24-2.37h-.69v-.85l7.09-1V52.77c0,2.18,1.13,2.54,3.18,2.54v.84Z"/></g></g></svg>