<svg xmlns="http://www.w3.org/2000/svg" viewBox="0 0 75.11 63.22"><defs><style>.cls-1{fill:#ccc;}.cls-2{fill:#fff;}</style></defs><title>Asset 26</title><g id="Layer_2" data-name="Layer 2"><g id="Layer_1-2" data-name="Layer 1"><path class="cls-1" d="M70.56,12a4.54,4.54,0,0,0-3.34,7.63L50.08,29,38.75,8.94a4.56,4.56,0,1,0-2.39,0L25,29,7.9,19.58a4.56,4.56,0,1,0-1.78,1.19L16.5,58.33H58.61L69,20.77a4.49,4.49,0,0,0,1.56.28,4.55,4.55,0,0,0,0-9.1"/><path class="cls-1" d="M58,59.08H17.68a2.1,2.1,0,0,0,0,4.14H58a2.1,2.1,0,0,0,0-4.14"/><path class="cls-2" d="M41.23,44c-3.26,3.58-3.3,3.61-6.24,7.1h5.83c1.17,0,2.82,0,3.55-2.15h.79l-.92,5.79h-12v-2C33.5,51,34.92,49,37.46,45.33c2.66-3.87,3.45-5.8,3.45-7.54a3,3,0,0,0-3.26-3.08c-3,0-4,2.48-4.47,3.77l-.73-.28a10.62,10.62,0,0,1,1.08-3.55A6.19,6.19,0,0,1,39,31.32a5.82,5.82,0,0,1,6.15,5.77c0,1.65-.44,3-4,6.94"/></g></g></svg>