<svg xmlns="http://www.w3.org/2000/svg" viewBox="0 0 40.56 28.77"><defs><style>.cls-1{fill:#e5ac64;}.cls-2{fill:#ffd261;}.cls-3{fill:#fff;}</style></defs><title>Asset 1</title><g id="Layer_2" data-name="Layer 2"><g id="Layer_1-2" data-name="Layer 1"><path class="cls-1" d="M35.83,11A15.56,15.56,0,0,1,31,4.34a1.36,1.36,0,0,0,1-1.35,1.29,1.29,0,1,0-2.58,0,1.37,1.37,0,0,0,.72,1.24c-1,1.49-3.32,4.32-6.47,4.83-.22,0-.44.06-.67.07-1.3.09-.9.26.36.48l-.36,0c-4.7.31,12.89,1.84,12.89,1.84s-.27-.2-.69-.57l.69.06"/><path class="cls-1" d="M17.79,9.13a5.25,5.25,0,0,1-.68-.08c-3.14-.5-5.45-3.33-6.46-4.82A1.39,1.39,0,0,0,11.36,3,1.29,1.29,0,1,0,8.79,3a1.36,1.36,0,0,0,1,1.35A15.56,15.56,0,0,1,4.9,11l.68-.06c-.41.37-.68.57-.68.57S22.49,10,17.79,9.64l-.37,0c1.27-.22,1.67-.39.37-.48"/><path class="cls-2" d="M39.1,3.28a1.51,1.51,0,0,0-1.46,1.57A1.59,1.59,0,0,0,38,5.9C35.13,8.49,27,14.13,20.9,3.05a1.58,1.58,0,0,0,1-1.48,1.47,1.47,0,1,0-2.93,0,1.57,1.57,0,0,0,1,1.48C13.6,14.43,5.23,8.16,2.56,5.7a1.61,1.61,0,0,0,.36-1A1.51,1.51,0,0,0,1.46,3.1,1.51,1.51,0,0,0,0,4.67,1.51,1.51,0,0,0,1.46,6.24a1.62,1.62,0,0,0,.44-.07L4.63,25a.8.8,0,0,0-.38.69V26a1.18,1.18,0,0,0-.41.9,1.16,1.16,0,0,0,.41.9h0V28a.76.76,0,0,0,.73.78H36a.76.76,0,0,0,.73-.78v-.3a1.19,1.19,0,0,0,.34-.84,1.16,1.16,0,0,0-.34-.83v-.3a.79.79,0,0,0-.51-.75L38.87,6.4l.23,0a1.51,1.51,0,0,0,1.46-1.57A1.51,1.51,0,0,0,39.1,3.28"/><path class="cls-3" d="M17.6,25.29v-.42c1,0,1.6-.15,1.6-1.28V15.32c0-1-.33-1.19-1.13-1.19h-.34V13.7l3.56-.49V23.59c0,1.1.58,1.28,1.6,1.28v.42Z"/></g></g></svg>