<svg xmlns="http://www.w3.org/2000/svg" viewBox="0 0 75.11 63.22"><defs><style>.cls-1{fill:#d48245;}.cls-2{fill:#fff;}</style></defs><title>Asset 25</title><g id="Layer_2" data-name="Layer 2"><g id="Layer_1-2" data-name="Layer 1"><path class="cls-1" d="M70.56,12a4.54,4.54,0,0,0-3.34,7.63L50.08,29,38.75,8.94a4.56,4.56,0,1,0-2.39,0L25,29,7.9,19.58a4.56,4.56,0,1,0-1.78,1.19L16.5,58.33H58.61L69,20.77a4.49,4.49,0,0,0,1.56.28,4.55,4.55,0,0,0,0-9.1"/><path class="cls-1" d="M58,59.08H17.68a2.1,2.1,0,0,0,0,4.14H58a2.1,2.1,0,0,0,0-4.14"/><path class="cls-2" d="M38.22,55.09c-3.2,0-6-2.37-6-5.13a2.64,2.64,0,0,1,2.63-2.79,2.36,2.36,0,0,1,2.54,2.28,2.68,2.68,0,0,1-1.21,2.12c-.35.29-.41.45-.41.73a2.06,2.06,0,0,0,2.12,1.9c1.4,0,2.92-1.2,2.92-4.15a9.37,9.37,0,0,0-2-6,4.32,4.32,0,0,0-3.48-1.42c-.19,0-1.11.06-1.34.06v-.79a9.27,9.27,0,0,0,4.19-1.2,4.31,4.31,0,0,0,2-3.36,2.77,2.77,0,0,0-3-2.67A3.83,3.83,0,0,0,33.62,37l-.69-.41c.92-3.33,3.29-5.2,6.18-5.2s5.38,1.84,5.38,4.73a5.59,5.59,0,0,1-1.64,3.83,8.28,8.28,0,0,1-2.22,1.55,6,6,0,0,1,3.07,2.13A7.24,7.24,0,0,1,45.16,48a7.08,7.08,0,0,1-6.94,7.13"/></g></g></svg>