<svg xmlns="http://www.w3.org/2000/svg" viewBox="0 0 40.26 28.56"><defs><style>.cls-1{fill:#a02d77;}.cls-2{fill:#d03894;}.cls-3{fill:#fff;}</style></defs><title>Asset 7</title><g id="Layer_2" data-name="Layer 2"><g id="Layer_1-2" data-name="Layer 1"><path class="cls-1" d="M35.56,10.89a15.45,15.45,0,0,1-4.84-6.58,1.37,1.37,0,0,0,1-1.34,1.28,1.28,0,1,0-2.56,0,1.38,1.38,0,0,0,.71,1.23c-1,1.48-3.3,4.28-6.42,4.79-.22,0-.44.06-.67.07-1.29.09-.89.26.36.48l-.36,0c-4.67.3,12.79,1.82,12.79,1.82s-.26-.19-.67-.56l.67.06"/><path class="cls-1" d="M17.66,9.06c-.23,0-.45,0-.67-.07-3.13-.51-5.41-3.31-6.42-4.79A1.38,1.38,0,0,0,11.28,3,1.28,1.28,0,1,0,8.72,3a1.36,1.36,0,0,0,1,1.34,15.43,15.43,0,0,1-4.85,6.58l.68-.06a8.08,8.08,0,0,1-.68.56s17.46-1.52,12.8-1.82l-.37,0c1.26-.22,1.66-.39.37-.48"/><path class="cls-2" d="M38.81,3.25a1.51,1.51,0,0,0-1.45,1.56,1.64,1.64,0,0,0,.38,1.05C34.87,8.42,26.84,14,20.74,3a1.56,1.56,0,0,0,1-1.47,1.45,1.45,0,1,0-2.9,0,1.56,1.56,0,0,0,1,1.47C13.5,14.33,5.19,8.1,2.54,5.66a1.59,1.59,0,0,0,.36-1A1.51,1.51,0,0,0,1.45,3.07,1.51,1.51,0,0,0,0,4.63,1.51,1.51,0,0,0,1.45,6.19a1.31,1.31,0,0,0,.44-.07L4.6,24.84a.79.79,0,0,0-.38.69v.23a1.18,1.18,0,0,0,0,1.79h0v.22a.75.75,0,0,0,.72.78H35.7a.76.76,0,0,0,.72-.78v-.29a1.18,1.18,0,0,0,.34-.83,1.15,1.15,0,0,0-.34-.83v-.3a.76.76,0,0,0-.51-.74L38.59,6.35l.22,0a1.51,1.51,0,0,0,1.45-1.56,1.51,1.51,0,0,0-1.45-1.56"/><path class="cls-3" d="M18.85,24.4a2.87,2.87,0,0,1-3.11-2.6,1.39,1.39,0,0,1,1.35-1.46,1.24,1.24,0,0,1,1.32,1.16,1.39,1.39,0,0,1-.57,1c-.18.16-.28.26-.28.43a1.15,1.15,0,0,0,1.27,1,1,1,0,0,0,1-.6,5,5,0,0,0,.38-2c0-2.57-1.74-2.86-2.41-2.86a4.25,4.25,0,0,0-1.44.29V12.39h5.83l-.49,1.87H17V16.8a6.47,6.47,0,0,1,1.63-.21,3.5,3.5,0,0,1,3.84,3.79c0,2.71-1.75,4-3.58,4"/></g></g></svg>