<svg xmlns="http://www.w3.org/2000/svg" viewBox="0 0 40.93 29.03"><defs><style>.cls-1{fill:#82512c;}.cls-2{fill:#db8945;}.cls-3{fill:#fff;}</style></defs><title>Asset 3</title><g id="Layer_2" data-name="Layer 2"><g id="Layer_1-2" data-name="Layer 1"><path class="cls-1" d="M36.15,11.07a15.81,15.81,0,0,1-4.93-6.69,1.38,1.38,0,0,0,1-1.36,1.3,1.3,0,1,0-2.6,0,1.4,1.4,0,0,0,.72,1.25c-1,1.5-3.35,4.35-6.53,4.87-.22,0-.45.06-.68.07-1.31.09-.9.27.37.48l-.37,0c-4.74.31,13,1.85,13,1.85s-.27-.2-.69-.58l.69.07"/><path class="cls-1" d="M18,9.21c-.23,0-.46,0-.68-.07-3.18-.52-5.5-3.37-6.53-4.87A1.41,1.41,0,0,0,11.47,3a1.36,1.36,0,0,0-1.3-1.4A1.35,1.35,0,0,0,8.87,3a1.37,1.37,0,0,0,1,1.36,15.72,15.72,0,0,1-4.93,6.69L5.63,11c-.42.38-.69.58-.69.58S22.69,10,18,9.73l-.37,0c1.27-.21,1.68-.39.37-.48"/><path class="cls-2" d="M39.45,3.31A1.53,1.53,0,0,0,38,4.89,1.65,1.65,0,0,0,38.36,6c-2.91,2.6-11.08,8.29-17.28-2.88a1.59,1.59,0,0,0,1-1.49,1.48,1.48,0,1,0-2.95,0,1.59,1.59,0,0,0,1,1.49C13.72,14.56,5.28,8.24,2.59,5.75a1.68,1.68,0,0,0,.36-1A1.53,1.53,0,0,0,1.48,3.12,1.54,1.54,0,0,0,0,4.71,1.53,1.53,0,0,0,1.48,6.29a1.31,1.31,0,0,0,.44-.07l2.76,19a.82.82,0,0,0-.39.7v.23a1.21,1.21,0,0,0-.42.91,1.19,1.19,0,0,0,.42.91h0v.23A.77.77,0,0,0,5,29H36.28a.77.77,0,0,0,.74-.79v-.3a1.22,1.22,0,0,0,0-1.69V26a.79.79,0,0,0-.52-.75L39.22,6.46l.23,0a1.54,1.54,0,0,0,1.48-1.59,1.54,1.54,0,0,0-1.48-1.58"/><path class="cls-3" d="M20.18,25.68A3,3,0,0,1,17.07,23a1.37,1.37,0,0,1,1.36-1.45,1.22,1.22,0,0,1,1.32,1.19,1.41,1.41,0,0,1-.62,1.1c-.18.15-.22.23-.22.38a1.08,1.08,0,0,0,1.11,1c.72,0,1.52-.63,1.52-2.16a4.87,4.87,0,0,0-1-3.1,2.25,2.25,0,0,0-1.82-.74l-.69,0v-.41a4.8,4.8,0,0,0,2.18-.63,2.24,2.24,0,0,0,1-1.75,1.44,1.44,0,0,0-1.57-1.38,2,2,0,0,0-1.85,1.17L17.43,16a3.32,3.32,0,0,1,3.21-2.7,2.58,2.58,0,0,1,2.81,2.45,2.9,2.9,0,0,1-.86,2,4.1,4.1,0,0,1-1.15.81,3.11,3.11,0,0,1,1.6,1.1A3.8,3.8,0,0,1,23.8,22a3.69,3.69,0,0,1-3.62,3.71"/></g></g></svg>