<svg xmlns="http://www.w3.org/2000/svg" viewBox="0 0 91.69 65.04"><defs><style>.cls-1{fill:#37377c;}.cls-2{fill:#5555b7;}.cls-3{fill:#fff;}</style></defs><title>Asset 8</title><g id="Layer_2" data-name="Layer 2"><g id="Layer_1-2" data-name="Layer 1"><path class="cls-1" d="M81,24.79s-7.94-5.9-11-15a3.08,3.08,0,0,0,2.25-3,2.92,2.92,0,1,0-5.83,0A3.15,3.15,0,0,0,68,9.57c-2.29,3.36-7.5,9.75-14.61,10.9a15.23,15.23,0,0,1-1.53.17c-2.94.19-2,.59.83,1.08-.28,0-.55.06-.83.07C41.23,22.49,81,25.94,81,25.94s-.61-.45-1.55-1.29l1.55.14"/><path class="cls-1" d="M40.22,20.64a15.23,15.23,0,0,1-1.53-.17c-7.12-1.15-12.33-7.54-14.62-10.9a3.15,3.15,0,0,0,1.62-2.8,3,3,0,0,0-2.92-3.14,3,3,0,0,0-2.91,3.14,3.1,3.1,0,0,0,2.25,3.05c-3.1,9.07-11,15-11,15l1.54-.13c-.94.84-1.54,1.28-1.54,1.28s39.75-3.45,29.14-4.15c-.28,0-.56,0-.84-.07,2.86-.48,3.77-.89.84-1.08"/><path class="cls-2" d="M88.38,7.41A3.44,3.44,0,0,0,85.07,11a3.67,3.67,0,0,0,.87,2.39c-6.53,5.83-24.82,18.58-38.7-6.46a3.55,3.55,0,0,0,2.19-3.34,3.32,3.32,0,1,0-6.62,0A3.54,3.54,0,0,0,45,6.89c-14.27,25.73-33.19,11.57-39.22,6a3.7,3.7,0,0,0,.82-2.34A3.43,3.43,0,0,0,3.31,7,3.44,3.44,0,0,0,0,10.55,3.44,3.44,0,0,0,3.31,14.1a2.92,2.92,0,0,0,1-.16l6.19,42.64a1.78,1.78,0,0,0-.87,1.56v.53a2.61,2.61,0,0,0-.93,2,2.65,2.65,0,0,0,.93,2h0v.52A1.72,1.72,0,0,0,11.26,65h70a1.72,1.72,0,0,0,1.65-1.77v-.68a2.7,2.7,0,0,0,0-3.78v-.67a1.76,1.76,0,0,0-1.15-1.69l6.09-42a4.38,4.38,0,0,0,.51,0A3.44,3.44,0,0,0,91.69,11a3.44,3.44,0,0,0-3.31-3.55"/><path class="cls-3" d="M29.48,55.2v-1c2.25,0,3.62-.33,3.62-2.88V32.66c0-2.37-.74-2.7-2.55-2.7h-.78V29l8.06-1.11V51.36c0,2.47,1.29,2.88,3.62,2.88v1Z"/><path class="cls-3" d="M53.39,55.57c-3.73,0-7-2.77-7-6a3.07,3.07,0,0,1,3.07-3.25,2.75,2.75,0,0,1,3,2.66A3.15,3.15,0,0,1,51,51.47c-.4.33-.48.51-.48.85A2.41,2.41,0,0,0,53,54.53c1.63,0,3.4-1.4,3.4-4.84a10.92,10.92,0,0,0-2.33-6.95A5,5,0,0,0,50,41.08c-.23,0-1.3.08-1.56.08v-.93c1.22-.15,3.4-.33,4.88-1.4a5,5,0,0,0,2.33-3.92,3.23,3.23,0,0,0-3.51-3.1A4.45,4.45,0,0,0,48,34.43L47.22,34c1.07-3.88,3.84-6.06,7.2-6.06s6.29,2.14,6.29,5.5a6.54,6.54,0,0,1-1.92,4.48,10,10,0,0,1-2.59,1.81,6.91,6.91,0,0,1,3.58,2.47,8.43,8.43,0,0,1,1.7,5.1,8.26,8.26,0,0,1-8.09,8.32"/></g></g></svg>