<svg xmlns="http://www.w3.org/2000/svg" viewBox="0 0 41.28 40.09"><defs><style>.cls-1{fill:#c9388d;}</style></defs><title>Asset 23</title><g id="Layer_2" data-name="Layer 2"><g id="Layer_1-2" data-name="Layer 1"><path class="cls-1" d="M20.81,20.47a1.22,1.22,0,0,1,0-1.73L28,11.56a7.81,7.81,0,0,0-3.87-.91,7.85,7.85,0,0,0-7.89,6.78,7.87,7.87,0,0,0-7.9-6.78C3.77,10.57,0,14.07,0,20.47c0,5,3.41,8.33,7.51,11.57h0L4,35.57,3.5,34.36a.36.36,0,0,0-.68,0L1.2,39.62a.36.36,0,0,0,.46.45l5.22-1.61a.36.36,0,0,0,.26-.33.35.35,0,0,0-.23-.35l-1.2-.49,3.75-3.75a66.88,66.88,0,0,1,6.18,5.07c.22.22.17.21.17.21a.55.55,0,0,0,.41.21h0a.55.55,0,0,0,.41-.21s-.06,0,.17-.21c6.35-6.13,15.64-9.92,15.64-18.14a10.59,10.59,0,0,0-2.52-7.4l-7.39,7.4a1.22,1.22,0,0,1-1.73,0"/><path class="cls-1" d="M36.82,4.46,35.81,0l-4.6,4.6.69,3.05L28,11.56a7.63,7.63,0,0,1,2,1.51l3.69-3.69,3,.69,4.6-4.61Z"/></g></g></svg>