<svg xmlns="http://www.w3.org/2000/svg" viewBox="0 0 117.31 21.26"><defs><style>.cls-1{fill:#edbd1e;}</style></defs><title>Asset 11</title><g id="Layer_2" data-name="Layer 2"><g id="Layer_1-2" data-name="Layer 1"><polygon class="cls-1" points="13.66 8.17 22.03 8.17 15.31 13.23 17.88 21.26 11.03 16.29 4.15 21.26 6.74 13.23 0 8.17 8.37 8.17 11.03 0 13.66 8.17"/><polygon class="cls-1" points="37.48 8.17 45.85 8.17 39.13 13.23 41.7 21.26 34.85 16.29 27.97 21.26 30.56 13.23 23.82 8.17 32.19 8.17 34.85 0 37.48 8.17"/><polygon class="cls-1" points="61.3 8.17 69.67 8.17 62.95 13.23 65.52 21.26 58.66 16.29 51.79 21.26 54.38 13.23 47.64 8.17 56.01 8.17 58.66 0 61.3 8.17"/><polygon class="cls-1" points="85.12 8.17 93.49 8.17 86.77 13.23 89.34 21.26 82.48 16.29 75.61 21.26 78.2 13.23 71.46 8.17 79.83 8.17 82.48 0 85.12 8.17"/><polygon class="cls-1" points="108.94 8.17 117.31 8.17 110.59 13.23 113.16 21.26 106.3 16.29 99.43 21.26 102.02 13.23 95.28 8.17 103.65 8.17 106.3 0 108.94 8.17"/></g></g></svg>