<svg xmlns="http://www.w3.org/2000/svg" viewBox="0 0 91.69 65.04"><defs><style>.cls-1{fill:#37377c;}.cls-2{fill:#5555b7;}.cls-3{fill:#fff;}</style></defs><title>Asset 1</title><g id="Layer_2" data-name="Layer 2"><g id="Layer_1-2" data-name="Layer 1"><path class="cls-1" d="M81,24.79s-7.94-5.9-11-15a3.08,3.08,0,0,0,2.25-3,2.92,2.92,0,1,0-5.83,0A3.15,3.15,0,0,0,68,9.57c-2.29,3.36-7.5,9.75-14.61,10.9a15.23,15.23,0,0,1-1.53.17c-2.94.19-2,.6.83,1.08-.28,0-.55.06-.83.07C41.23,22.49,81,25.94,81,25.94s-.61-.44-1.55-1.29l1.55.14"/><path class="cls-1" d="M40.22,20.64a15.23,15.23,0,0,1-1.53-.17c-7.12-1.15-12.33-7.54-14.62-10.9a3.15,3.15,0,0,0,1.62-2.8,3,3,0,0,0-2.92-3.14,3,3,0,0,0-2.91,3.14,3.08,3.08,0,0,0,2.25,3c-3.1,9.08-11,15-11,15l1.54-.14c-.94.84-1.54,1.29-1.54,1.29s39.75-3.45,29.14-4.15c-.28,0-.56,0-.84-.07,2.86-.49,3.77-.89.84-1.08"/><path class="cls-2" d="M88.38,7.41A3.44,3.44,0,0,0,85.07,11a3.67,3.67,0,0,0,.87,2.39c-6.53,5.83-24.82,18.58-38.7-6.46a3.55,3.55,0,0,0,2.19-3.34,3.32,3.32,0,1,0-6.62,0A3.54,3.54,0,0,0,45,6.89c-14.27,25.73-33.19,11.57-39.22,6a3.67,3.67,0,0,0,.82-2.33A3.43,3.43,0,0,0,3.31,7,3.44,3.44,0,0,0,0,10.55,3.44,3.44,0,0,0,3.31,14.1a2.92,2.92,0,0,0,1-.16l6.19,42.64a1.78,1.78,0,0,0-.87,1.55v.54a2.69,2.69,0,0,0,0,4.07h0v.52A1.72,1.72,0,0,0,11.26,65h70a1.72,1.72,0,0,0,1.65-1.77v-.68a2.7,2.7,0,0,0,0-3.78v-.68a1.76,1.76,0,0,0-1.15-1.68l6.09-42a4.38,4.38,0,0,0,.51,0A3.44,3.44,0,0,0,91.69,11a3.44,3.44,0,0,0-3.31-3.55"/><path class="cls-3" d="M46.24,41A53.41,53.41,0,0,0,44.69,55.2H39.33c.48-8.35,4.14-15.41,8.79-22.73H41.8c-3.51,0-4.06,1.85-4.73,4h-.92l1.22-8.28H51.26v2.4a29.18,29.18,0,0,0-5,10.42"/></g></g></svg>