<svg xmlns="http://www.w3.org/2000/svg" width="91.686" height="65.037" viewBox="0 0 91.686 65.037"><path d="M80.986,24.792s-7.935-5.9-11.036-14.977A3.093,3.093,0,0,0,72.2,6.767a2.923,2.923,0,1,0-5.83,0,3.16,3.16,0,0,0,1.62,2.8c-2.292,3.36-7.5,9.748-14.616,10.9q-.751.121-1.531.173c-2.932.191-2.021.593.834,1.075q-.412.05-.834.078c-10.617.691,29.141,4.149,29.141,4.149s-.6-.449-1.543-1.289Z" fill="#37377c"/><path d="M40.217,20.642q-.78-.051-1.532-.173c-7.113-1.151-12.323-7.539-14.616-10.9a3.158,3.158,0,0,0,1.62-2.8,2.922,2.922,0,1,0-5.829,0,3.093,3.093,0,0,0,2.252,3.048c-3.1,9.076-11.036,14.977-11.036,14.977l1.543-.137c-.939.84-1.543,1.289-1.543,1.289S50.834,22.486,40.217,21.8q-.421-.029-.834-.078C42.237,21.235,43.149,20.833,40.217,20.642Z" fill="#37377c"/><path d="M88.38,7.407a3.436,3.436,0,0,0-3.306,3.553,3.687,3.687,0,0,0,.863,2.388c-6.526,5.836-24.819,18.586-38.7-6.454a3.544,3.544,0,0,0,2.19-3.341,3.315,3.315,0,1,0-6.612,0A3.544,3.544,0,0,0,45,6.894C30.742,32.62,11.824,18.456,5.794,12.885a3.69,3.69,0,0,0,.818-2.335A3.436,3.436,0,0,0,3.306,7,3.436,3.436,0,0,0,0,10.55,3.436,3.436,0,0,0,3.306,14.1a3.085,3.085,0,0,0,.987-.161l6.185,42.634a1.8,1.8,0,0,0-.869,1.558v.531a2.691,2.691,0,0,0,0,4.071v.531a1.717,1.717,0,0,0,1.647,1.77H81.284a1.717,1.717,0,0,0,1.647-1.77v-.678a2.7,2.7,0,0,0,0-3.777v-.678a1.767,1.767,0,0,0-1.15-1.686l6.09-41.981a3.169,3.169,0,0,0,.509.046,3.436,3.436,0,0,0,3.306-3.553A3.436,3.436,0,0,0,88.38,7.407Z" fill="#5555b0"/><path d="M31.953,55v-.961c2.255,0,3.622-.333,3.622-2.883v-18.7c0-2.365-.739-2.7-2.55-2.7h-.776V28.8l8.056-1.108V51.155c0,2.476,1.294,2.883,3.622,2.883V55Z" fill="#fff"/><path d="M59.708,47.651V51.31c0,1.367.7,1.736,2.366,1.736v.961h-9.5v-.961h.554a1.61,1.61,0,0,0,1.848-1.736V47.651h-7.8V46.283L58.526,26.7h1.182V46.283h2.4v1.368Zm-4.73-12.2L48.7,46.283h6.283Z" fill="#fff"/></svg>