<svg xmlns="http://www.w3.org/2000/svg" viewBox="0 0 41.28 40.09"><defs><style>.cls-1{fill:#c9388d;}.cls-2{fill:#c9388d;}.cls-3{mask:url(#mask);}.cls-4{opacity:0.75;mix-blend-mode:multiply;}.cls-5{fill:#fff;}.cls-6{filter:url(#luminosity-invert);}</style></defs><g class="cls-1"><g id="Layer_2" data-name="Layer 2"><path class="cls-1" d="M20.81,20.47a1.24,1.24,0,0,1,0-1.73L28,11.56a7.92,7.92,0,0,0-3.87-.91,7.85,7.85,0,0,0-7.89,6.78,7.87,7.87,0,0,0-7.9-6.78C3.77,10.57,0,14.08,0,20.47c0,5,3.41,8.34,7.51,11.57h0L4,35.57,3.5,34.36a.36.36,0,0,0-.68,0L1.2,39.62a.39.39,0,0,0,.09.36.36.36,0,0,0,.37.09l5.22-1.61a.36.36,0,0,0,0-.68l-1.2-.49,3.75-3.75a66.88,66.88,0,0,1,6.18,5.07c.22.22.17.22.17.22a.58.58,0,0,0,.41.2h0a.56.56,0,0,0,.41-.2s-.06,0,.17-.22c6.35-6.13,15.64-9.92,15.64-18.14a10.54,10.54,0,0,0-2.52-7.4l-7.39,7.4A1.22,1.22,0,0,1,20.81,20.47Z"/><path class="cls-1" d="M36.82,4.46,35.81,0l-4.6,4.6.69,3.05L28,11.56a7.41,7.41,0,0,1,1.94,1.51l3.7-3.69,3,.69,4.6-4.6Z"/><path class="cls-2" d="M20.81,20.47a1.24,1.24,0,0,1,0-1.73L28,11.56a7.92,7.92,0,0,0-3.87-.91,7.85,7.85,0,0,0-7.89,6.78,7.87,7.87,0,0,0-7.9-6.78C3.77,10.57,0,14.08,0,20.47c0,5,3.41,8.34,7.51,11.57h0L4,35.57,3.5,34.36a.36.36,0,0,0-.68,0L1.2,39.62a.39.39,0,0,0,.09.36.36.36,0,0,0,.37.09l5.22-1.61a.36.36,0,0,0,0-.68l-1.2-.49,3.75-3.75a66.88,66.88,0,0,1,6.18,5.07c.22.22.17.22.17.22a.58.58,0,0,0,.41.2h0a.56.56,0,0,0,.41-.2s-.06,0,.17-.22c6.35-6.13,15.64-9.92,15.64-18.14a10.54,10.54,0,0,0-2.52-7.4l-7.39,7.4A1.22,1.22,0,0,1,20.81,20.47Z"/><path class="cls-1" d="M36.82,4.46,35.81,0l-4.6,4.6.69,3.05L28,11.56a7.41,7.41,0,0,1,1.94,1.51l3.7-3.69,3,.69,4.6-4.6Z"/></g></g></svg>