<svg xmlns="http://www.w3.org/2000/svg" viewBox="0 0 49.31 43.33"><defs><style>.cls-1{fill:#cf3893;}.cls-2{fill:#fff;}.cls-3{fill:#fff;font-size:24px;font-family: MidashiMinPro-MA31, MidashiMinPro MA31-83pv-RKSJ-H;}</style></defs><g class="cls-1"><g id="Layer_1" data-name="Layer 1"><path class="cls-1" d="M360.06,237.55a3,3,0,0,0-2.2,5l-11.25,6.2-7.43-13.18a3,3,0,1,0-1.57,0l-7.43,13.18-11.25-6.2a3,3,0,1,0-2.2,1,2.89,2.89,0,0,0,1-.19L324.57,268h27.65L359,243.34a2.94,2.94,0,0,0,1,.19,3,3,0,1,0,0-6Z" transform="translate(-313.74 -229.71)"/><path class="cls-1" d="M351.78,268.49H325.35a1.38,1.38,0,0,0,0,2.72h26.43a1.38,1.38,0,0,0,0-2.72Z" transform="translate(-313.74 -229.71)"/><text class="cls-3" transform="translate(16.25 34.78)">4</text></g></g></svg>




