<svg xmlns="http://www.w3.org/2000/svg" viewBox="0 0 91.69 65.04"><defs><style>.cls-1{fill:#37377c;}.cls-2{fill:#5555b0;}.cls-3{fill:#fff;}</style></defs><title>Asset 11</title><g id="Layer_2" data-name="Layer 2"><g id="Layer_1-2" data-name="Layer 1"><path class="cls-1" d="M81,24.79s-7.94-5.9-11-15a3.08,3.08,0,0,0,2.25-3,2.92,2.92,0,1,0-5.83,0A3.15,3.15,0,0,0,68,9.57c-2.29,3.36-7.5,9.75-14.61,10.9a15.23,15.23,0,0,1-1.53.17c-2.94.19-2,.6.83,1.08-.28,0-.55.06-.83.07C41.23,22.49,81,25.94,81,25.94s-.61-.44-1.55-1.29l1.55.14"/><path class="cls-1" d="M40.22,20.64a15.23,15.23,0,0,1-1.53-.17c-7.12-1.15-12.33-7.54-14.62-10.9a3.15,3.15,0,0,0,1.62-2.8,3,3,0,0,0-2.92-3.14,3,3,0,0,0-2.91,3.14,3.1,3.1,0,0,0,2.25,3.05c-3.1,9.07-11,15-11,15l1.54-.13c-.94.84-1.54,1.28-1.54,1.28s39.75-3.45,29.14-4.14l-.84-.08c2.86-.48,3.77-.89.84-1.08"/><path class="cls-2" d="M88.38,7.41A3.44,3.44,0,0,0,85.07,11a3.67,3.67,0,0,0,.87,2.39c-6.53,5.83-24.82,18.58-38.7-6.45a3.57,3.57,0,0,0,2.19-3.35,3.32,3.32,0,1,0-6.62,0A3.57,3.57,0,0,0,45,6.9c-14.27,25.72-33.19,11.56-39.22,6a3.7,3.7,0,0,0,.82-2.34A3.43,3.43,0,0,0,3.31,7,3.44,3.44,0,0,0,0,10.55,3.44,3.44,0,0,0,3.31,14.1a2.92,2.92,0,0,0,1-.16l6.19,42.64a1.78,1.78,0,0,0-.87,1.55v.54a2.69,2.69,0,0,0,0,4.07h0v.52A1.72,1.72,0,0,0,11.26,65h70a1.72,1.72,0,0,0,1.65-1.77v-.68a2.7,2.7,0,0,0,0-3.78v-.68a1.76,1.76,0,0,0-1.15-1.68l6.09-42a2.92,2.92,0,0,0,.51,0A3.44,3.44,0,0,0,91.69,11a3.44,3.44,0,0,0-3.31-3.55"/><path class="cls-3" d="M48.53,48.84V52.5c0,1.37.7,1.74,2.36,1.74v1H41.4v-1H42A1.61,1.61,0,0,0,43.8,52.5V48.84H36V47.48L47.35,27.89h1.18V47.48h2.4v1.36ZM43.8,36.65,37.52,47.48H43.8Z"/></g></g></svg>