<svg xmlns="http://www.w3.org/2000/svg" viewBox="0 0 41.28 29.28"><defs><style>.cls-1{fill:#a8a8a8;}.cls-2{fill:#d3d3d3;}.cls-3{fill:#fff;}</style></defs><title>Asset 2</title><g id="Layer_2" data-name="Layer 2"><g id="Layer_1-2" data-name="Layer 1"><path class="cls-1" d="M36.46,11.16a15.92,15.92,0,0,1-5-6.74,1.4,1.4,0,0,0,1-1.37,1.31,1.31,0,1,0-2.62,0,1.43,1.43,0,0,0,.73,1.26c-1,1.51-3.38,4.39-6.58,4.9a5.4,5.4,0,0,1-.69.08c-1.32.09-.91.27.38.49l-.38,0c-4.78.31,13.12,1.87,13.12,1.87s-.27-.2-.7-.58l.7.06"/><path class="cls-1" d="M18.11,9.29a5,5,0,0,1-.69-.08c-3.21-.51-5.55-3.39-6.58-4.9a1.43,1.43,0,0,0,.73-1.26,1.32,1.32,0,1,0-2.63,0,1.4,1.4,0,0,0,1,1.37,15.92,15.92,0,0,1-5,6.74l.69-.06c-.42.38-.69.58-.69.58s17.9-1.56,13.12-1.87l-.38,0c1.29-.22,1.7-.4.38-.49"/><path class="cls-2" d="M39.79,3.33a1.55,1.55,0,0,0-1.49,1.6A1.66,1.66,0,0,0,38.69,6C35.75,8.64,27.51,14.38,21.27,3.1a1.59,1.59,0,0,0,1-1.5,1.49,1.49,0,1,0-3,0,1.6,1.6,0,0,0,1,1.5C13.84,14.69,5.32,8.31,2.61,5.8a1.66,1.66,0,0,0,.37-1,1.55,1.55,0,0,0-1.49-1.6A1.55,1.55,0,0,0,0,4.75a1.55,1.55,0,0,0,1.49,1.6,1.62,1.62,0,0,0,.44-.07L4.72,25.47a.81.81,0,0,0-.39.7v.24a1.21,1.21,0,0,0,0,1.83h0v.23a.77.77,0,0,0,.74.8H36.59a.77.77,0,0,0,.74-.8v-.3a1.19,1.19,0,0,0,.35-.85,1.16,1.16,0,0,0-.35-.85v-.31a.79.79,0,0,0-.51-.76l2.74-18.9.23,0a1.55,1.55,0,0,0,1.49-1.6,1.55,1.55,0,0,0-1.49-1.6"/><path class="cls-3" d="M21.94,20.1C20.22,22,20.21,22,18.66,23.82h3.06a1.64,1.64,0,0,0,1.86-1.13H24l-.48,3H17.21V24.67c.67-.91,1.42-2,2.75-3.89s1.81-3,1.81-4a1.57,1.57,0,0,0-1.71-1.61,2.53,2.53,0,0,0-2.35,2L17.33,17a5.71,5.71,0,0,1,.56-1.87,3.26,3.26,0,0,1,2.9-1.74,3.05,3.05,0,0,1,3.22,3c0,.87-.23,1.6-2.07,3.65"/></g></g></svg>