<svg xmlns="http://www.w3.org/2000/svg" viewBox="0 0 49.31 43.33"><defs><style>.cls-1{isolation:isolate;}.cls-2{fill:#cf3893;}.cls-3{font-size:25.23px;font-family:MidashiMinPro-MA31, MidashiMinPro MA31-83pv-RKSJ-H; fill:#fff;}</style></defs><g class="cls-1"><g id="Layer_2" data-name="Layer 2"><path class="cls-2" d="M46.32,7.84a3,3,0,0,0-2.2,5l-11.25,6.2L25.44,5.87a3,3,0,1,0-1.57,0L16.44,19.05,5.19,12.85a3,3,0,1,0-2.2,1,2.88,2.88,0,0,0,1-.18l6.82,24.65H38.48l6.81-24.65a2.94,2.94,0,0,0,1,.18,3,3,0,1,0,0-6Z"/><path class="cls-2" d="M38,38.78H11.61a1.38,1.38,0,0,0,0,2.72H38a1.38,1.38,0,0,0,0-2.72Z"/><text class="cls-3" transform="translate(16.25 34.78)">4</text></g></g></svg>