<svg xmlns="http://www.w3.org/2000/svg" xmlns:xlink="http://www.w3.org/1999/xlink" viewBox="0 0 687.75 49.64"><defs><style>.cls-1,.cls-3,.cls-4{fill:none;}.cls-2{clip-path:url(#clip-path);}.cls-3,.cls-4{stroke:#fff;}.cls-3{stroke-width:0.4px;}.cls-4{stroke-width:4px;}.cls-5{fill:#5555b0;}.cls-6{opacity:0.12;}.cls-7{clip-path:url(#clip-path-2);}.cls-8{fill:url(#Unnamed_Pattern_11);}</style><clipPath id="clip-path"><rect class="cls-1" width="70.8" height="72"/></clipPath><clipPath id="clip-path-2" transform="translate(0 -0.04)"><rect class="cls-1" width="687.75" height="49.7"/></clipPath><pattern id="Unnamed_Pattern_11" data-name="Unnamed Pattern 11" width="70.8" height="72" patternTransform="matrix(0.74, -0.52, -1.07, -1.53, 31830.57, 35570.9)" patternUnits="userSpaceOnUse" viewBox="0 0 70.8 72"><rect class="cls-1" width="70.8" height="72"/><g class="cls-2"><line class="cls-3" x1="35.4" x2="35.4" y2="72"/><line class="cls-3" x1="11.8" x2="11.8" y2="72"/><line class="cls-3" x1="59" x2="59" y2="72"/><line class="cls-4" x1="30.8" x2="30.8" y2="72"/><line class="cls-4" x1="7.2" x2="7.2" y2="72"/><line class="cls-4" x1="54.4" x2="54.4" y2="72"/><line class="cls-4" x1="16.4" x2="16.4" y2="72"/><line class="cls-4" x1="40" x2="40" y2="72"/><line class="cls-4" x1="63.6" x2="63.6" y2="72"/></g></pattern></defs><title>Asset 10</title><g id="Layer_2" data-name="Layer 2"><g id="Layer_1-2" data-name="Layer 1"><polygon class="cls-5" points="687.75 49.64 0 49.64 0 24.82 0 0 687.75 0 665.96 25.11 687.75 49.64"/><g class="cls-6"><g class="cls-7"><polygon class="cls-8" points="687.75 49.64 0 49.64 0 24.82 0 0 687.75 0 665.96 25.11 687.75 49.64"/></g></g></g></g></svg>