<?xml version="1.0" standalone="no"?>
<!DOCTYPE svg PUBLIC "-//W3C//DTD SVG 20010904//EN"
 "http://www.w3.org/TR/2001/REC-SVG-20010904/DTD/svg10.dtd">
<svg version="1.0" xmlns="http://www.w3.org/2000/svg"
 width="512.000000pt" height="512.000000pt" viewBox="0 0 512.000000 512.000000"
 preserveAspectRatio="xMidYMid meet">
<metadata>
Created by potrace 1.11, written by Peter Selinger 2001-2013
</metadata>
<g transform="translate(0.000000,512.000000) scale(0.100000,-0.100000)"
fill="#000000" stroke="none">
<path d="M1830 5030 l0 -90 -185 0 -185 0 0 -89 0 -89 -180 -7 -180 -7 0 -89
0 -89 -95 0 -95 0 0 -90 0 -90 -90 0 -90 0 0 -90 0 -90 -90 0 -90 0 0 -95 0
-95 -89 0 -89 0 -7 -180 -7 -179 -87 -3 -86 -3 -3 -362 -2 -363 -90 0 -90 0 0
-280 0 -280 90 0 90 0 2 -363 3 -362 86 -3 87 -3 7 -179 7 -180 89 0 89 0 0
-95 0 -95 90 0 90 0 0 -90 0 -90 90 0 90 0 0 -90 0 -90 95 0 95 0 0 -90 0 -90
90 0 90 0 0 -90 0 -90 133 0 c72 0 196 -3 275 -7 l142 -6 0 -82 0 -82 137 -6
c75 -4 363 -7 640 -7 l503 0 0 88 0 89 143 6 c78 4 202 7 275 7 l132 0 0 85 0
85 180 0 180 0 0 -84 0 -83 180 -8 179 -7 3 -86 3 -87 93 -3 92 -3 0 -89 0
-90 275 0 275 0 0 275 0 275 -90 0 -90 0 0 90 0 90 -89 0 -89 0 -7 180 -7 179
-87 3 -86 3 -3 183 -2 182 90 0 90 0 0 138 c0 77 3 200 7 275 l6 137 82 0 82
0 6 143 c9 184 9 825 0 1000 l-6 137 -82 0 -83 0 -7 185 -7 185 -83 0 -83 0
-7 180 -7 180 -89 0 -89 0 0 95 0 95 -89 0 -89 0 -7 180 -7 180 -179 0 -179 0
0 89 0 89 -180 7 -179 7 -3 87 -3 86 -182 3 -183 2 0 90 0 90 -640 0 -640 0 0
-90z m360 -1190 l0 -920 -90 0 -90 0 0 -85 0 -85 -407 0 c-225 0 -472 -3 -550
-7 l-143 -6 0 -639 0 -638 -90 0 -90 0 0 95 0 95 -90 0 -90 0 0 143 c0 78 -3
199 -7 270 l-6 127 -84 0 -83 0 0 550 0 550 90 0 90 0 0 275 0 275 90 0 90 0
0 90 0 90 90 0 89 0 3 93 3 92 93 3 92 3 0 89 0 90 90 0 90 0 0 90 0 90 183 2
182 3 3 87 3 88 182 3 c100 1 221 3 270 5 l87 2 0 -920z m967 910 l132 0 3
-87 3 -88 183 -3 182 -2 0 -90 0 -90 90 0 90 0 0 -95 0 -95 90 0 90 0 0 -85 0
-85 -633 0 -634 0 -6 128 c-4 70 -7 191 -7 270 l0 142 -90 0 -90 0 0 90 0 89
93 4 c50 2 155 3 232 1 77 -2 199 -4 272 -4z m1233 -1180 l0 -90 90 0 90 0 0
-370 0 -370 90 0 90 0 0 -90 0 -90 -90 0 -90 0 0 -455 0 -455 -90 0 -90 0 0
-95 0 -95 -89 0 -89 0 -7 -180 -7 -180 -83 0 -82 0 -6 137 c-4 75 -7 443 -7
818 l0 682 -137 6 c-75 4 -360 7 -633 7 l-497 0 -6 128 c-9 167 -9 767 0 775
3 4 375 7 825 7 l818 0 0 -90z m-915 -1650 l0 -455 -915 -3 c-503 -2 -997 0
-1097 3 l-183 7 0 449 0 448 93 4 c50 1 544 3 1097 2 l1005 0 0 -455z m3
-1097 l3 -93 -96 0 -95 0 0 -90 0 -90 -730 0 -730 0 0 90 0 90 -185 0 -185 0
0 88 c0 49 3 92 7 95 3 4 457 6 1007 5 l1001 -3 3 -92z"/>
</g>
</svg>
